<?xml version="1.0" encoding="utf-8"?>
<svg xmlns="http://www.w3.org/2000/svg" style="margin: auto; background: none; display: block; shape-rendering: auto;" width="280" height="250" preserveAspectRatio="xMidYMid">
<style type="text/css">
  text {
    text-anchor: middle; font-size: 46px; opacity: 0;
  }
</style>
<g style="transform-origin:140px 125px;transform:scale(1)">
<g transform="translate(140,125)">
  <g transform="translate(0,0)"><g class="path" style="transform: scale(0.91); transform-origin: -109.69px 1.47538px; animation: 1s linear -0.5775s infinite normal forwards running breath-31fe4c89-0a3a-47aa-b0aa-ec9520c32983;"><path d="M17.80-24.33L17.80-24.33Q24.06-24.33 27.02-21.80L27.02-21.80L27.02-21.80Q29.99-19.27 29.99-15.18L29.99-15.18L29.99-15.18Q29.99-13.80 29.62-12.10L29.62-12.10L29.62-12.10Q28.75-8.33 26.36-5.50L26.36-5.50L26.36-5.50Q23.97-2.67 20.49-1.13L20.49-1.13L20.49-1.13Q17.02 0.41 12.97 0.41L12.97 0.41L12.97 0.41Q6.58 0.41 3.52-2.14L3.52-2.14L3.52-2.14Q0.46-4.69 0.46-8.92L0.46-8.92L0.46-8.92Q0.46-10.35 0.83-12.10L0.83-12.10L0.83-12.10Q1.70-15.69 4.16-18.47L4.16-18.47L4.16-18.47Q6.62-21.25 10.19-22.79L10.19-22.79L10.19-22.79Q13.75-24.33 17.80-24.33L17.80-24.33zM17.66-20.24L17.66-20.24Q16.70-20.24 15.62-18.52L15.62-18.52L15.62-18.52Q14.54-16.79 13.06-12.01L13.06-12.01L13.06-12.01Q11.59-7.22 11.59-5.29L11.59-5.29L11.59-5.29Q11.59-4.28 11.91-3.93L11.91-3.93L11.91-3.93Q12.24-3.59 12.79-3.59L12.79-3.59L12.79-3.59Q13.75-3.50 14.79-5.24L14.79-5.24L14.79-5.24Q15.82-6.99 17.39-12.05L17.39-12.05L17.39-12.05Q18.81-16.51 18.81-18.54L18.81-18.54L18.81-18.54Q18.81-19.50 18.52-19.87L18.52-19.87L18.52-19.87Q18.22-20.24 17.66-20.24L17.66-20.24" fill="#9356dc" stroke="none" stroke-width="none" transform="translate(-124.91500854492188,13.435378189086915)" style="fill: rgb(147, 86, 220);"></path></g><g class="path" style="transform: scale(0.91); transform-origin: -80.9844px -3.35462px; animation: 1s linear -0.495s infinite normal forwards running breath-31fe4c89-0a3a-47aa-b0aa-ec9520c32983;"><path d="M60.26-15.41L57.45-6.35L57.45-6.35Q57.36-6.16 57.36-5.80L57.36-5.80L57.36-5.80Q57.36-5.47 57.52-5.29L57.52-5.29L57.52-5.29Q57.68-5.11 57.96-5.11L57.96-5.11L57.96-5.11Q58.51-5.11 58.90-5.59L58.90-5.59L58.90-5.59Q59.29-6.07 59.43-6.07L59.43-6.07L59.43-6.07Q59.66-6.07 59.80-5.77L59.80-5.77L59.80-5.77Q59.94-5.47 59.94-5.06L59.94-5.06L59.94-5.06Q59.98-3.73 59.06-2.46L59.06-2.46L59.06-2.46Q58.14-1.20 56.37-0.39L56.37-0.39L56.37-0.39Q54.60 0.41 52.12 0.41L52.12 0.41L52.12 0.41Q49.08 0.41 47.29-0.99L47.29-0.99L47.29-0.99Q45.49-2.39 45.45-4.74L45.45-4.74L45.45-4.74Q45.45-6.44 46.28-8.56L46.28-8.56L48.81-15.18L48.81-15.18Q49.04-15.78 49.04-16.15L49.04-16.15L49.04-16.15Q49.04-16.74 48.64-17.09L48.64-17.09L48.64-17.09Q48.25-17.43 47.70-17.43L47.70-17.43L47.70-17.43Q46.83-17.43 45.93-16.63L45.93-16.63L45.93-16.63Q45.03-15.82 44.48-14.03L44.48-14.03L44.48-14.12L41.58-4.78L41.58-4.78Q41.45-4.23 41.45-3.82L41.45-3.82L41.45-3.82Q41.45-3.22 41.68-2.88L41.68-2.88L41.68-2.88Q41.91-2.53 42.32-2.21L42.32-2.21L42.32-2.21Q42.64-1.89 42.78-1.68L42.78-1.68L42.78-1.68Q42.92-1.47 42.83-1.15L42.83-1.15L42.83-1.15Q42.60-0.55 41.91-0.28L41.91-0.28L41.91-0.28Q41.22 0 39.79 0L39.79 0L29.30 0L29.30 0Q28.11 0 27.55-0.39L27.55-0.39L27.55-0.39Q27.00-0.78 27.19-1.43L27.19-1.43L27.19-1.43Q27.37-1.98 28.15-2.39L28.15-2.39L28.15-2.39Q28.84-2.76 29.30-3.27L29.30-3.27L29.30-3.27Q29.76-3.77 30.08-4.88L30.08-4.88L37.08-27.83L37.08-27.83Q37.21-28.24 37.21-28.52L37.21-28.52L37.21-28.52Q37.21-29.03 36.96-29.35L36.96-29.35L36.96-29.35Q36.71-29.67 36.29-29.99L36.29-29.99L36.29-29.99Q35.83-30.36 35.63-30.64L35.63-30.64L35.63-30.64Q35.42-30.91 35.56-31.37L35.56-31.37L35.56-31.37Q35.83-32.43 38.46-33.21L38.46-33.21L38.46-33.21Q41.08-33.99 43.93-33.99L43.93-33.99L43.93-33.99Q46.60-33.99 47.86-32.98L47.86-32.98L47.86-32.98Q49.13-31.97 49.13-30.22L49.13-30.22L49.13-30.22Q49.13-29.21 48.81-28.24L48.81-28.24L46.32-20.15L46.32-20.15Q48.12-22.49 50.12-23.41L50.12-23.41L50.12-23.41Q52.12-24.33 54.46-24.33L54.46-24.33L54.46-24.33Q57.27-24.33 59.00-22.63L59.00-22.63L59.00-22.63Q60.72-20.93 60.72-18.22L60.72-18.22L60.72-18.22Q60.72-16.79 60.26-15.41L60.26-15.41" fill="#9356dc" stroke="none" stroke-width="none" transform="translate(-124.91500854492188,13.435378189086915)" style="fill: rgb(147, 86, 220);"></path></g><g class="path" style="transform: scale(0.91); transform-origin: -40.4246px 1.47538px; animation: 1s linear -0.4125s infinite normal forwards running breath-31fe4c89-0a3a-47aa-b0aa-ec9520c32983;"><path d="M108.47-15.41L105.66-6.35L105.66-6.35Q105.57-6.16 105.57-5.80L105.57-5.80L105.57-5.80Q105.57-5.47 105.73-5.29L105.73-5.29L105.73-5.29Q105.89-5.11 106.17-5.11L106.17-5.11L106.17-5.11Q106.72-5.11 107.11-5.59L107.11-5.59L107.11-5.59Q107.50-6.07 107.64-6.07L107.64-6.07L107.64-6.07Q107.87-6.07 108.01-5.77L108.01-5.77L108.01-5.77Q108.15-5.47 108.15-5.06L108.15-5.06L108.15-5.06Q108.19-3.73 107.27-2.46L107.27-2.46L107.27-2.46Q106.35-1.20 104.58-0.39L104.58-0.39L104.58-0.39Q102.81 0.41 100.33 0.41L100.33 0.41L100.33 0.41Q97.29 0.41 95.50-0.99L95.50-0.99L95.50-0.99Q93.70-2.39 93.66-4.74L93.66-4.74L93.66-4.74Q93.66-6.44 94.48-8.56L94.48-8.56L97.01-15.18L97.01-15.18Q97.24-15.78 97.24-16.15L97.24-16.15L97.24-16.15Q97.24-16.74 96.85-17.09L96.85-17.09L96.85-17.09Q96.46-17.43 95.91-17.43L95.91-17.43L95.91-17.43Q95.13-17.43 94.30-16.74L94.30-16.74L94.30-16.74Q93.47-16.05 92.83-14.58L92.83-14.58L90.30-6.35L90.30-6.35Q90.21-6.16 90.21-5.80L90.21-5.80L90.21-5.80Q90.21-5.47 90.37-5.29L90.37-5.29L90.37-5.29Q90.53-5.11 90.80-5.11L90.80-5.11L90.80-5.11Q91.36-5.11 91.75-5.59L91.75-5.59L91.75-5.59Q92.14-6.07 92.28-6.07L92.28-6.07L92.28-6.07Q92.51-6.07 92.64-5.77L92.64-5.77L92.64-5.77Q92.78-5.47 92.78-5.06L92.78-5.06L92.78-5.06Q92.83-3.73 91.91-2.46L91.91-2.46L91.91-2.46Q90.99-1.20 89.22-0.39L89.22-0.39L89.22-0.39Q87.45 0.41 84.96 0.41L84.96 0.41L84.96 0.41Q81.93 0.41 80.13-0.99L80.13-0.99L80.13-0.99Q78.34-2.39 78.29-4.74L78.29-4.74L78.29-4.74Q78.29-6.44 79.12-8.56L79.12-8.56L81.65-15.18L81.65-15.18Q81.88-15.78 81.88-16.15L81.88-16.15L81.88-16.15Q81.88-16.74 81.49-17.09L81.49-17.09L81.49-17.09Q81.10-17.43 80.55-17.43L80.55-17.43L80.55-17.43Q79.76-17.43 78.94-16.77L78.94-16.77L78.94-16.77Q78.11-16.10 77.56-14.63L77.56-14.63L74.52-4.78L74.52-4.78Q74.34-4.28 74.34-3.82L74.34-3.82L74.34-3.82Q74.34-3.27 74.57-2.92L74.57-2.92L74.57-2.92Q74.80-2.58 75.21-2.21L75.21-2.21L75.21-2.21Q75.53-1.93 75.67-1.70L75.67-1.70L75.67-1.70Q75.81-1.47 75.72-1.15L75.72-1.15L75.72-1.15Q75.53-0.55 74.84-0.28L74.84-0.28L74.84-0.28Q74.15 0 72.68 0L72.68 0L62.19 0L62.19 0Q61.00 0 60.47-0.39L60.47-0.39L60.47-0.39Q59.94-0.78 60.08-1.43L60.08-1.43L60.08-1.43Q60.26-1.98 61.04-2.39L61.04-2.39L61.04-2.39Q61.73-2.76 62.19-3.27L62.19-3.27L62.19-3.27Q62.65-3.77 62.97-4.88L62.97-4.88L67.07-18.17L67.07-18.17Q67.16-18.40 67.16-18.81L67.16-18.81L67.16-18.81Q67.16-19.32 66.95-19.60L66.95-19.60L66.95-19.60Q66.75-19.87 66.29-20.29L66.29-20.29L66.29-20.29Q65.83-20.65 65.64-20.93L65.64-20.93L65.64-20.93Q65.46-21.21 65.60-21.67L65.60-21.67L65.60-21.67Q65.87-22.72 68.49-23.53L68.49-23.53L68.49-23.53Q71.12-24.33 73.97-24.33L73.97-24.33L73.97-24.33Q76.22-24.33 77.53-23.09L77.53-23.09L77.53-23.09Q78.84-21.85 78.80-19.69L78.80-19.69L78.80-19.69Q80.68-22.31 82.78-23.32L82.78-23.32L82.78-23.32Q84.87-24.33 87.31-24.33L87.31-24.33L87.31-24.33Q89.98-24.33 91.66-22.79L91.66-22.79L91.66-22.79Q93.33-21.25 93.52-18.77L93.52-18.77L93.52-18.77Q95.50-21.90 97.75-23.11L97.75-23.11L97.75-23.11Q100.00-24.33 102.67-24.33L102.67-24.33L102.67-24.33Q105.48-24.33 107.20-22.63L107.20-22.63L107.20-22.63Q108.93-20.93 108.93-18.22L108.93-18.22L108.93-18.22Q108.93-16.79 108.47-15.41L108.47-15.41" fill="#9356dc" stroke="none" stroke-width="none" transform="translate(-124.91500854492188,13.435378189086915)" style="fill: rgb(147, 86, 220);"></path></g><g class="path" style="transform: scale(0.91); transform-origin: -2.53001px 5.61538px; animation: 1s linear -0.33s infinite normal forwards running breath-31fe4c89-0a3a-47aa-b0aa-ec9520c32983;"><path d="M134.04-24.33L134.04-24.33Q136.07-24.33 137.29-22.70L137.29-22.70L137.29-22.70Q138.51-21.07 138.51-18.26L138.51-18.26L138.51-18.26Q138.51-15.82 137.63-13.02L137.63-13.02L137.63-13.02Q135.93-7.36 132.18-2.35L132.18-2.35L132.18-2.35Q128.43 2.67 123.58 5.70L123.58 5.70L123.58 5.70Q118.73 8.74 113.90 8.74L113.90 8.74L113.90 8.74Q111.50 8.74 109.78 7.91L109.78 7.91L109.78 7.91Q108.05 7.08 107.16 5.70L107.16 5.70L107.16 5.70Q106.26 4.32 106.26 2.76L106.26 2.76L106.26 2.76Q106.26 2.07 106.49 1.24L106.49 1.24L106.49 1.24Q106.90-0.05 107.87-0.74L107.87-0.74L107.87-0.74Q108.84-1.43 110.17-1.43L110.17-1.43L110.17-1.43Q112.29-1.43 113.64 0.02L113.64 0.02L113.64 0.02Q115 1.47 115.37 4.00L115.37 4.00L115.37 4.00Q118.31 3.86 120.80 1.47L120.80 1.47L120.80 1.47Q118.45 1.06 117.32-0.11L117.32-0.11L117.32-0.11Q116.20-1.29 115.78-3.77L115.78-3.77L113.94-15.04L113.94-15.04Q113.80-15.92 113.55-16.26L113.55-16.26L113.55-16.26Q113.30-16.61 112.88-16.61L112.88-16.61L112.88-16.61Q112.56-16.61 112.13-16.28L112.13-16.28L112.13-16.28Q111.69-15.96 111.50-15.96L111.50-15.96L111.50-15.96Q111.14-15.96 111.14-16.74L111.14-16.74L111.14-16.74Q111.14-17.39 111.37-18.12L111.37-18.12L111.37-18.12Q112.19-20.75 114.45-22.56L114.45-22.56L114.45-22.56Q116.70-24.38 119.69-24.38L119.69-24.38L119.69-24.38Q122.64-24.38 124.04-22.63L124.04-22.63L124.04-22.63Q125.44-20.88 125.86-17.25L125.86-17.25L127.24-7.13L127.24-7.13Q127.37-5.98 128.06-5.98L128.06-5.98L128.06-5.98Q128.89-5.98 130.00-7.47L130.00-7.47L130.00-7.47Q131.10-8.97 132.16-11.73L132.16-11.73L132.16-11.73Q130.78-12.97 130.04-14.58L130.04-14.58L130.04-14.58Q129.31-16.19 129.31-18.03L129.31-18.03L129.31-18.03Q129.31-19.46 129.67-20.61L129.67-20.61L129.67-20.61Q130.23-22.45 131.40-23.39L131.40-23.39L131.40-23.39Q132.57-24.33 134.04-24.33L134.04-24.33" fill="#9356dc" stroke="none" stroke-width="none" transform="translate(-124.91500854492188,13.435378189086915)" style="fill: rgb(147, 86, 220);"></path></g><g class="path" style="transform: scale(0.91); transform-origin: 26.5178px -3.55962px; animation: 1s linear -0.2475s infinite normal forwards running breath-31fe4c89-0a3a-47aa-b0aa-ec9520c32983;"><path d="M156.95-33.99L156.95-33.99Q161.87-33.99 164.34-32.50L164.34-32.50L164.34-32.50Q166.80-31.00 166.80-28.84L166.80-28.84L166.80-28.84Q166.80-27.09 165.35-26.15L165.35-26.15L165.35-26.15Q163.90-25.21 161.55-25.21L161.55-25.21L161.55-25.21Q159.39-25.21 158.19-26.27L158.19-26.27L158.19-26.27Q157.00-27.32 157.00-28.89L157.00-28.89L157.00-28.89Q157.00-29.85 157.60-30.91L157.60-30.91L157.60-30.91Q156.22-30.91 155.30-30.25L155.30-30.25L155.30-30.25Q154.38-29.58 153.87-27.97L153.87-27.97L153.87-27.97Q153.59-26.96 153.59-26.08L153.59-26.08L153.59-26.08Q153.59-24.98 153.98-24.36L153.98-24.36L153.98-24.36Q154.38-23.74 155.11-23.74L155.11-23.74L157.83-23.74L157.83-23.74Q160.22-23.74 160.22-22.26L160.22-22.26L160.22-22.26Q160.22-22.08 160.13-21.71L160.13-21.71L160.13-21.71Q159.85-20.70 159.00-20.19L159.00-20.19L159.00-20.19Q158.15-19.69 156.45-19.69L156.45-19.69L155.07-19.69L150.51-4.78L150.51-4.78Q150.37-4.23 150.37-3.82L150.37-3.82L150.37-3.82Q150.37-3.22 150.60-2.88L150.60-2.88L150.60-2.88Q150.83-2.53 151.25-2.21L151.25-2.21L151.25-2.21Q151.57-1.89 151.71-1.68L151.71-1.68L151.71-1.68Q151.85-1.47 151.75-1.15L151.75-1.15L151.75-1.15Q151.52-0.55 150.83-0.28L150.83-0.28L150.83-0.28Q150.14 0 148.72 0L148.72 0L138.23 0L138.23 0Q137.03 0 136.48-0.39L136.48-0.39L136.48-0.39Q135.93-0.78 136.11-1.43L136.11-1.43L136.11-1.43Q136.30-1.98 137.08-2.39L137.08-2.39L137.08-2.39Q137.77-2.76 138.23-3.27L138.23-3.27L138.23-3.27Q138.69-3.77 139.01-4.88L139.01-4.88L142.60-16.65L142.60-16.65Q142.83-17.34 142.83-18.08L142.83-18.08L142.83-18.08Q142.83-19.00 142.44-19.53L142.44-19.53L142.44-19.53Q142.05-20.06 141.27-20.70L141.27-20.70L141.27-20.70Q140.76-21.11 140.51-21.41L140.51-21.41L140.51-21.41Q140.25-21.71 140.25-22.13L140.25-22.13L140.25-22.13Q140.21-23 140.88-23.37L140.88-23.37L140.88-23.37Q141.54-23.74 143.43-23.74L143.43-23.74L144.58-23.74L144.58-23.74Q144.26-24.89 144.26-26.04L144.26-26.04L144.26-26.04Q144.26-27.19 144.67-28.43L144.67-28.43L144.67-28.43Q145.54-30.77 148.42-32.38L148.42-32.38L148.42-32.38Q151.29-33.99 156.95-33.99L156.95-33.99" fill="#9356dc" stroke="none" stroke-width="none" transform="translate(-124.91500854492188,13.435378189086915)" style="fill: rgb(147, 86, 220);"></path></g><g class="path" style="transform: scale(0.91); transform-origin: 47.63px 1.47538px; animation: 1s linear -0.165s infinite normal forwards running breath-31fe4c89-0a3a-47aa-b0aa-ec9520c32983;"><path d="M175.12-24.33L175.12-24.33Q181.38-24.33 184.34-21.80L184.34-21.80L184.34-21.80Q187.31-19.27 187.31-15.18L187.31-15.18L187.31-15.18Q187.31-13.80 186.94-12.10L186.94-12.10L186.94-12.10Q186.07-8.33 183.68-5.50L183.68-5.50L183.68-5.50Q181.29-2.67 177.81-1.13L177.81-1.13L177.81-1.13Q174.34 0.41 170.29 0.41L170.29 0.41L170.29 0.41Q163.90 0.41 160.84-2.14L160.84-2.14L160.84-2.14Q157.78-4.69 157.78-8.92L157.78-8.92L157.78-8.92Q157.78-10.35 158.15-12.10L158.15-12.10L158.15-12.10Q159.02-15.69 161.48-18.47L161.48-18.47L161.48-18.47Q163.94-21.25 167.51-22.79L167.51-22.79L167.51-22.79Q171.07-24.33 175.12-24.33L175.12-24.33zM174.98-20.24L174.98-20.24Q174.02-20.24 172.94-18.52L172.94-18.52L172.94-18.52Q171.86-16.79 170.38-12.01L170.38-12.01L170.38-12.01Q168.91-7.22 168.91-5.29L168.91-5.29L168.91-5.29Q168.91-4.28 169.23-3.93L169.23-3.93L169.23-3.93Q169.56-3.59 170.11-3.59L170.11-3.59L170.11-3.59Q171.07-3.50 172.11-5.24L172.11-5.24L172.11-5.24Q173.14-6.99 174.71-12.05L174.71-12.05L174.71-12.05Q176.13-16.51 176.13-18.54L176.13-18.54L176.13-18.54Q176.13-19.50 175.83-19.87L175.83-19.87L175.83-19.87Q175.54-20.24 174.98-20.24L174.98-20.24" fill="#9356dc" stroke="none" stroke-width="none" transform="translate(-124.91500854492188,13.435378189086915)" style="fill: rgb(147, 86, 220);"></path></g><g class="path" style="transform: scale(0.91); transform-origin: 77.81px 1.47538px; animation: 1s linear -0.0825s infinite normal forwards running breath-31fe4c89-0a3a-47aa-b0aa-ec9520c32983;"><path d="M205.30-24.33L205.30-24.33Q211.55-24.33 214.52-21.80L214.52-21.80L214.52-21.80Q217.49-19.27 217.49-15.18L217.49-15.18L217.49-15.18Q217.49-13.80 217.12-12.10L217.12-12.10L217.12-12.10Q216.25-8.33 213.85-5.50L213.85-5.50L213.85-5.50Q211.46-2.67 207.99-1.13L207.99-1.13L207.99-1.13Q204.52 0.41 200.47 0.41L200.47 0.41L200.47 0.41Q194.07 0.41 191.01-2.14L191.01-2.14L191.01-2.14Q187.96-4.69 187.96-8.92L187.96-8.92L187.96-8.92Q187.96-10.35 188.32-12.10L188.32-12.10L188.32-12.10Q189.20-15.69 191.66-18.47L191.66-18.47L191.66-18.47Q194.12-21.25 197.68-22.79L197.68-22.79L197.68-22.79Q201.25-24.33 205.30-24.33L205.30-24.33zM205.16-20.24L205.16-20.24Q204.19-20.24 203.11-18.52L203.11-18.52L203.11-18.52Q202.03-16.79 200.56-12.01L200.56-12.01L200.56-12.01Q199.09-7.22 199.09-5.29L199.09-5.29L199.09-5.29Q199.09-4.28 199.41-3.93L199.41-3.93L199.41-3.93Q199.73-3.59 200.28-3.59L200.28-3.59L200.28-3.59Q201.25-3.50 202.28-5.24L202.28-5.24L202.28-5.24Q203.32-6.99 204.88-12.05L204.88-12.05L204.88-12.05Q206.31-16.51 206.31-18.54L206.31-18.54L206.31-18.54Q206.31-19.50 206.01-19.87L206.01-19.87L206.01-19.87Q205.71-20.24 205.16-20.24L205.16-20.24" fill="#9356dc" stroke="none" stroke-width="none" transform="translate(-124.91500854492188,13.435378189086915)" style="fill: rgb(147, 86, 220);"></path></g><g class="path" style="transform: scale(0.91); transform-origin: 109.34px -3.48962px; animation: 1s linear 0s infinite normal forwards running breath-31fe4c89-0a3a-47aa-b0aa-ec9520c32983;"><path d="M243.39-6.62L243.39-6.62Q243.29-6.26 243.29-6.12L243.29-6.12L243.29-6.12Q243.29-5.80 243.48-5.61L243.48-5.61L243.48-5.61Q243.66-5.43 243.94-5.43L243.94-5.43L243.94-5.43Q244.49-5.43 244.88-5.91L244.88-5.91L244.88-5.91Q245.27-6.39 245.41-6.39L245.41-6.39L245.41-6.39Q245.64-6.39 245.78-6.07L245.78-6.07L245.78-6.07Q245.92-5.75 245.92-5.34L245.92-5.34L245.92-5.34Q245.96-4.09 244.97-2.81L244.97-2.81L244.97-2.81Q243.98-1.52 242.33-0.69L242.33-0.69L242.33-0.69Q240.67 0.14 238.74 0.14L238.74 0.14L238.74 0.14Q236.44 0.14 234.74-0.74L234.74-0.74L234.74-0.74Q233.04-1.61 232.39-3.04L232.39-3.04L232.39-3.04Q231.15-1.43 229.54-0.64L229.54-0.64L229.54-0.64Q227.93 0.14 226.14 0.14L226.14 0.14L226.14 0.14Q224.02 0.14 222.20-0.92L222.20-0.92L222.20-0.92Q220.39-1.98 219.30-3.93L219.30-3.93L219.30-3.93Q218.22-5.89 218.22-8.37L218.22-8.37L218.22-8.37Q218.22-12.56 219.81-16.26L219.81-16.26L219.81-16.26Q221.40-19.96 224.25-22.24L224.25-22.24L224.25-22.24Q227.10-24.52 230.74-24.52L230.74-24.52L230.74-24.52Q232.71-24.52 234.12-24.06L234.12-24.06L234.12-24.06Q235.52-23.60 236.67-22.68L236.67-22.68L238.23-27.83L238.23-27.83Q238.37-28.24 238.37-28.52L238.37-28.52L238.37-28.52Q238.37-29.03 238.12-29.35L238.12-29.35L238.12-29.35Q237.87-29.67 237.45-29.99L237.45-29.99L237.45-29.99Q236.99-30.36 236.78-30.64L236.78-30.64L236.78-30.64Q236.58-30.91 236.72-31.37L236.72-31.37L236.72-31.37Q236.99-32.43 239.61-33.21L239.61-33.21L239.61-33.21Q242.24-33.99 245.09-33.99L245.09-33.99L245.09-33.99Q247.76-33.99 249.02-32.98L249.02-32.98L249.02-32.98Q250.29-31.97 250.29-30.22L250.29-30.22L250.29-30.22Q250.29-29.21 249.96-28.24L249.96-28.24L243.39-6.62zM235.70-19.55L235.70-19.55Q234.97-20.19 234.09-20.19L234.09-20.19L234.09-20.19Q232.76-20.19 231.47-18.22L231.47-18.22L231.47-18.22Q230.18-16.24 229.40-13.43L229.40-13.43L229.40-13.43Q228.62-10.63 228.67-8.37L228.67-8.37L228.67-8.37Q228.67-5.84 230.32-5.84L230.32-5.84L230.32-5.84Q230.92-5.84 231.33-6.33L231.33-6.33L231.33-6.33Q231.75-6.81 232.12-7.91L232.12-7.91L235.70-19.55" fill="#9356dc" stroke="none" stroke-width="none" transform="translate(-124.91500854492188,13.435378189086915)" style="fill: rgb(147, 86, 220);"></path></g></g>
</g>
</g>
<style id="breath-31fe4c89-0a3a-47aa-b0aa-ec9520c32983" data-anikit="">@keyframes breath-31fe4c89-0a3a-47aa-b0aa-ec9520c32983
{
  0% {
    animation-timing-function: cubic-bezier(0.9647,0.2413,-0.0705,0.7911);
    transform: scale(0.9099999999999999);
  }
  51% {
    animation-timing-function: cubic-bezier(0.9226,0.2631,-0.0308,0.7628);
    transform: scale(1.02994);
  }
  100% {
    transform: scale(0.9099999999999999);
  }
}</style></svg>